# Blender v2.93.4 OBJ File: ''
# www.blender.org
mtllib DistanceMarker.mtl
o Cube
v 0.791911 0.145150 -0.791911
v 0.791911 -0.181763 -0.791911
v 0.791911 0.145150 0.791911
v 0.791911 -0.181763 0.791911
v -0.791911 0.145150 -0.791911
v -0.791911 -0.181763 -0.791911
v -0.791911 0.145150 0.791911
v -0.791911 -0.181763 0.791911
v -1.000000 -0.181763 -1.000000
v -1.000000 -0.181763 1.000000
v 1.000000 -0.181763 -1.000000
v 1.000000 0.145150 1.000000
v -1.000000 0.145150 1.000000
v 1.000000 0.145150 -1.000000
v 1.000000 -0.181763 1.000000
v -1.000000 0.145150 -1.000000
vt 0.848989 0.526011
vt 0.848989 0.723989
vt 0.848989 0.723989
vt 0.848989 0.526011
vt 0.375000 0.750000
vt 0.625000 0.750000
vt 0.625000 1.000000
vt 0.375000 1.000000
vt 0.375000 0.000000
vt 0.625000 0.000000
vt 0.625000 0.250000
vt 0.375000 0.250000
vt 0.651011 0.723989
vt 0.651011 0.723989
vt 0.375000 0.500000
vt 0.625000 0.500000
vt 0.151011 0.526011
vt 0.151011 0.723989
vt 0.125000 0.750000
vt 0.125000 0.500000
vt 0.348989 0.526011
vt 0.875000 0.750000
vt 0.651011 0.526011
vt 0.348989 0.723989
vt 0.875000 0.500000
vt 0.651011 0.526011
vn 1.0000 0.0000 0.0000
vn 0.0000 0.0000 1.0000
vn -1.0000 0.0000 0.0000
vn 0.0000 0.0000 -1.0000
vn 0.0000 -1.0000 0.0000
vn 0.0000 1.0000 0.0000
usemtl Material
s off
f 5/1/1 7/2/1 8/3/1 6/4/1
f 15/5/2 12/6/2 13/7/2 10/8/2
f 10/9/3 13/10/3 16/11/3 9/12/3
f 7/2/4 3/13/4 4/14/4 8/3/4
f 11/15/1 14/16/1 12/6/1 15/5/1
f 9/12/4 16/11/4 14/16/4 11/15/4
f 6/17/5 8/18/5 10/19/5 9/20/5
f 2/21/5 6/17/5 9/20/5 11/15/5
f 3/13/6 7/2/6 13/22/6 12/6/6
f 1/23/6 3/13/6 12/6/6 14/16/6
f 8/18/5 4/24/5 15/5/5 10/19/5
f 7/2/6 5/1/6 16/25/6 13/22/6
f 5/1/6 1/23/6 14/16/6 16/25/6
f 4/24/5 2/21/5 11/15/5 15/5/5
f 3/13/3 1/23/3 2/26/3 4/14/3
f 1/23/2 5/1/2 6/4/2 2/26/2
